# xmcd
#
# Track frame offsets: 
#        150
#        13202
#        26162
#        39180
#        50702
#        62760
#        75480
#        86510
#        97777
#        108212
#        121000
#        133847
#        146960
#        159277
#        170672
#        181555
#        194452
#        206830
#        219347
#        232330
#        245055
#        256947
#        269735
#        282190
#        294627
#
# Disc length: 4091 seconds
#
# Revision: 0
# Processed by: cddbd v1.5.2PL0 Copyright (c) Steve Scherf et al.
# Submitted via: ExactAudioCopy v0.95b3
#
DISCID=710ff919
DTITLE=Jimmie Lunceford  - Volume 6 1939 Complete Edition
DYEAR=1900
DGENRE=
TTITLE0=Baby. Won't You Please Come Home
TTITLE1=Baby. Won't You Please Come Home
TTITLE2=You're Just A Dream
TTITLE3=The Lonesome Road
TTITLE4=You Set Me On Fire
TTITLE5=I'm Only Myself To Blame
TTITLE6=What Is This Thing Called Swing?
TTITLE7=What Is This Thing Called Swing?
TTITLE8=Mixup
TTITLE9=Shoemaker's Holiday
TTITLE10=Blues Blazes
TTITLE11=Mandy. Make Up Your Mind
TTITLE12=Easter Parade
TTITLE13=Ain't The Sweet
TTITLE14=White Heat
TTITLE15=Oh Why. Oh Why
TTITLE16=Well. All Right Them
TTITLE17=Well. All Right Them
TTITLE18=You Let Me Down
TTITLE19=I Love You
TTITLE20=Who Did You Meet Last Night?
TTITLE21=You Let Me Down
TTITLE22=Sassin' The Boss
TTITLE23=I Want The Waiter (With The Water)
TTITLE24=I Used To Love You (But It's All Over Now)
EXTD=
EXTT0=
EXTT1=
EXTT2=
EXTT3=
EXTT4=
EXTT5=
EXTT6=
EXTT7=
EXTT8=
EXTT9=
EXTT10=
EXTT11=
EXTT12=
EXTT13=
EXTT14=
EXTT15=
EXTT16=
EXTT17=
EXTT18=
EXTT19=
EXTT20=
EXTT21=
EXTT22=
EXTT23=
EXTT24=
PLAYORDER=
